<?xml version="1.0" encoding="utf-8"?>
<!-- Generator: Adobe Illustrator 24.2.0, SVG Export Plug-In . SVG Version: 6.00 Build 0)  -->
<svg version="1.1" id="レイヤー_1" xmlns="http://www.w3.org/2000/svg" xmlns:xlink="http://www.w3.org/1999/xlink" x="0px"
	y="0px" viewBox="0 0 2560 1388" style="enable-background:new 0 0 2560 1388;" xml:space="preserve">
	<style type="text/css">
		.st0 {
			fill: none;
		}

		.st1 {
			fill: none;
			stroke: #09FBD3;
			stroke-miterlimit: 10;
		}

		.st2 {
			fill: url(#Cloudy_1_);
		}
	</style>
	<pattern y="1388" width="853" height="570.5" patternUnits="userSpaceOnUse" id="新規パターン_3"
		viewBox="284.3 -713.2 853 570.5" style="overflow:visible;">
		<g>
			<rect x="284.3" y="-713.2" class="st0" width="853" height="570.5" />
			<rect x="284.3" y="-713.2" class="st0" width="853" height="570.5" />
			<line class="st1" x1="853.4" y1="-712.8" x2="1137.9" y2="-428.3" />
			<line class="st1" x1="426.9" y1="-855.5" x2="711.4" y2="-570.9" />
			<line class="st1" x1="711.4" y1="-570.9" x2="994.8" y2="-854.3" />
			<line class="st1" x1="0.4" y1="-712.8" x2="284.9" y2="-428.3" />
			<line class="st1" x1="284.9" y1="-428.3" x2="568.3" y2="-711.7" />
			<line class="st1" x1="853.4" y1="-427.5" x2="1137.9" y2="-143" />
			<line class="st1" x1="426.9" y1="-570.2" x2="711.4" y2="-285.6" />
			<line class="st1" x1="711.4" y1="-285.6" x2="994.8" y2="-569" />
			<line class="st1" x1="0.4" y1="-427.5" x2="284.9" y2="-143" />
			<line class="st1" x1="284.9" y1="-143" x2="568.3" y2="-426.4" />
			<line class="st1" x1="426.9" y1="-284.9" x2="711.4" y2="-0.4" />
			<line class="st1" x1="711.4" y1="-0.4" x2="994.8" y2="-283.8" />
		</g>
	</pattern>
	<pattern id="Cloudy_1_" xlink:href="#譁ｰ隕上ヱ繧ｿ繝ｼ繝ｳ_3" patternTransform="matrix(1 0 0 -1 0 -17810.3477)">
	</pattern>
	<rect id="Cloudy" class="st2" width="2560" height="1388" />
</svg>