<svg id="レイヤー_1" data-name="レイヤー 1" xmlns="http://www.w3.org/2000/svg" xmlns:xlink="http://www.w3.org/1999/xlink" viewBox="0 0 2560 1388"><defs><style>.cls-1,.cls-2{fill:none;}.cls-2{stroke:#09fbd3;stroke-miterlimit:10;}.cls-3{fill:url(#新規パターン_2);}</style><pattern id="新規パターン_2" data-name="新規パターン 2" width="538.97" height="603.46" patternUnits="userSpaceOnUse" viewBox="0 0 538.97 603.46"><rect class="cls-1" width="538.97" height="603.46"/><polyline class="cls-2" points="538.61 402.66 460.96 480.32 505.45 524.81 270.19 760.07 314.38 804.26"/><polyline class="cls-2" points="269.13 402.66 191.47 480.32 235.97 524.81 0.71 760.07 44.9 804.26"/><polyline class="cls-2" points="673.36 100.93 595.7 178.59 640.2 223.08 404.93 458.34 449.12 502.53"/><polyline class="cls-2" points="403.87 100.93 326.22 178.59 370.71 223.08 135.45 458.34 179.64 502.53"/><polyline class="cls-2" points="134.39 100.93 56.73 178.59 101.23 223.08 -134.03 458.34 -89.85 502.53"/><polyline class="cls-2" points="538.61 -200.8 460.96 -123.14 505.45 -78.65 270.19 156.61 314.38 200.8"/><polyline class="cls-2" points="269.13 -200.8 191.47 -123.14 235.97 -78.65 0.71 156.61 44.9 200.8"/></pattern></defs><rect id="Thunder" class="cls-3" width="2560" height="1388"/></svg>