<svg
  width="334"
  height="186"
  viewBox="0 0 334 186"
  fill="none"
  xmlns="http://www.w3.org/2000/svg"
>
  <g filter="url(#filter0_d_1131_2)">
    <path
      d="M123.681 1H7.26236C4.90832 1 3 2.90832 3 5.26236V167C3 172.523 7.47715 177 13 177H317C322.523 177 327 172.523 327 167V15.2624C327 9.73951 322.523 5.26236 317 5.26236H133.945C132.019 5.26236 130.173 4.49548 128.813 3.13118C127.454 1.76688 125.607 1 123.681 1Z"
      fill="#222222"
    />
    <path
      d="M123.681 1H7.26236C4.90832 1 3 2.90832 3 5.26236V167C3 172.523 7.47715 177 13 177H317C322.523 177 327 172.523 327 167V15.2624C327 9.73951 322.523 5.26236 317 5.26236H133.945C132.019 5.26236 130.173 4.49548 128.813 3.13118C127.454 1.76688 125.607 1 123.681 1Z"
      stroke="#C4C4C4"
    />
  </g>
  <defs>
    <filter
      id="filter0_d_1131_2"
      x="0.5"
      y="0.5"
      width="333"
      height="185"
      filterUnits="userSpaceOnUse"
      color-interpolation-filters="sRGB"
    >
      <feFlood flood-opacity="0" result="BackgroundImageFix" />
      <feColorMatrix
        in="SourceAlpha"
        type="matrix"
        values="0 0 0 0 0 0 0 0 0 0 0 0 0 0 0 0 0 0 127 0"
        result="hardAlpha"
      />
      <feOffset dx="2" dy="4" />
      <feGaussianBlur stdDeviation="2" />
      <feComposite in2="hardAlpha" operator="out" />
      <feColorMatrix
        type="matrix"
        values="0 0 0 0 0 0 0 0 0 0 0 0 0 0 0 0 0 0 0.4 0"
      />
      <feBlend
        mode="normal"
        in2="BackgroundImageFix"
        result="effect1_dropShadow_1131_2"
      />
      <feBlend
        mode="normal"
        in="SourceGraphic"
        in2="effect1_dropShadow_1131_2"
        result="shape"
      />
    </filter>
  </defs>
</svg>
