<svg id="レイヤー_1" data-name="レイヤー 1" xmlns="http://www.w3.org/2000/svg" xmlns:xlink="http://www.w3.org/1999/xlink" viewBox="0 0 2560 1388"><defs><style>.cls-1,.cls-3{fill:none;}.cls-2{fill:#ce0000;}.cls-3{stroke:#ce0000;stroke-miterlimit:10;}.cls-4{fill:url(#新規パターン_4);}</style><pattern id="新規パターン_4" data-name="新規パターン 4" width="927.63" height="869.47" patternUnits="userSpaceOnUse" viewBox="0 0 927.63 869.47"><rect class="cls-1" width="927.63" height="869.47"/><path class="cls-2" d="M882.31,892.29V869H896.8v2H884.5v8.57h10.21v2H884.5v8.63h12.3v2Z"/><path class="cls-2" d="M913.4,892.29l-5.77-8.93h-5.34v8.93H900.1V869h12.17c2.42,0,3.54.55,3.54,3.42V880c0,2.87-1.12,3.41-3.54,3.41H910l5.77,8.93Zm.26-19.78c0-.93-.2-1.45-1.48-1.45h-9.89v10.31h9.89c1.32,0,1.48-.52,1.48-1.45Z"/><path class="cls-2" d="M933.05,892.29l-5.76-8.93h-5.35v8.93h-2.19V869h12.18c2.41,0,3.54.55,3.54,3.42V880c0,2.87-1.13,3.41-3.54,3.41h-2.32l5.76,8.93Zm.26-19.78c0-.93-.19-1.45-1.48-1.45h-9.89v10.31h9.89c1.32,0,1.48-.52,1.48-1.45Z"/><line class="cls-3" x1="927.63" y1="711.37" x2="967.25" y2="750.99"/><line class="cls-3" x1="876.68" y1="762.32" x2="848.38" y2="790.62"/><line class="cls-3" x1="927.63" y1="711.37" x2="888" y2="750.99"/><line class="cls-3" x1="927.63" y1="639.31" x2="927.63" y2="599.29"/><line class="cls-3" x1="927.63" y1="711.37" x2="927.63" y2="655.33"/><path class="cls-2" d="M573.1,892.29V869h14.49v2h-12.3v8.57H585.5v2H575.29v8.63h12.3v2Z"/><path class="cls-2" d="M604.19,892.29l-5.77-8.93h-5.34v8.93h-2.19V869h12.17c2.42,0,3.54.55,3.54,3.42V880c0,2.87-1.12,3.41-3.54,3.41h-2.32l5.77,8.93Zm.26-19.78c0-.93-.2-1.45-1.48-1.45h-9.89v10.31H603c1.32,0,1.48-.52,1.48-1.45Z"/><path class="cls-2" d="M623.85,892.29l-5.77-8.93h-5.35v8.93h-2.18V869h12.17c2.41,0,3.54.55,3.54,3.42V880c0,2.87-1.13,3.41-3.54,3.41H620.4l5.76,8.93Zm.25-19.78c0-.93-.19-1.45-1.48-1.45h-9.89v10.31h9.89c1.32,0,1.48-.52,1.48-1.45Z"/><path class="cls-2" d="M633.68,892.29c-2.42,0-3.54-.55-3.54-3.42V872.45c0-2.87,1.12-3.42,3.54-3.42h9.92c2.41,0,3.54.55,3.54,3.42v16.42c0,2.87-1.13,3.42-3.54,3.42ZM645,872.51c0-.93-.19-1.45-1.48-1.45h-9.69c-1.29,0-1.48.52-1.48,1.45v16.33c0,.93.19,1.45,1.48,1.45h9.69c1.32,0,1.48-.52,1.48-1.45Z"/><path class="cls-2" d="M664.87,892.29l-5.77-8.93h-5.35v8.93h-2.19V869h12.18c2.42,0,3.54.55,3.54,3.42V880c0,2.87-1.12,3.41-3.54,3.41h-2.32l5.76,8.93Zm.25-19.78c0-.93-.19-1.45-1.48-1.45h-9.89v10.31h9.89c1.32,0,1.48-.52,1.48-1.45Z"/><line class="cls-3" x1="618.42" y1="711.37" x2="658.04" y2="750.99"/><line class="cls-3" x1="567.47" y1="762.32" x2="539.17" y2="790.62"/><line class="cls-3" x1="618.42" y1="711.37" x2="578.79" y2="750.99"/><line class="cls-3" x1="669.37" y1="762.32" x2="697.67" y2="790.62"/><line class="cls-3" x1="618.42" y1="639.31" x2="618.42" y2="599.29"/><line class="cls-3" x1="618.42" y1="711.37" x2="618.42" y2="655.33"/><path class="cls-2" d="M263.89,892.29V869h14.49v2h-12.3v8.57h10.21v2H266.08v8.63h12.3v2Z"/><path class="cls-2" d="M295,892.29l-5.76-8.93h-5.35v8.93h-2.19V869h12.17c2.42,0,3.55.55,3.55,3.42V880c0,2.87-1.13,3.41-3.55,3.41h-2.32l5.77,8.93Zm.26-19.78c0-.93-.2-1.45-1.48-1.45h-9.89v10.31h9.89c1.32,0,1.48-.52,1.48-1.45Z"/><path class="cls-2" d="M314.64,892.29l-5.77-8.93h-5.34v8.93h-2.19V869h12.17c2.41,0,3.54.55,3.54,3.42V880c0,2.87-1.13,3.41-3.54,3.41h-2.32l5.77,8.93Zm.25-19.78c0-.93-.19-1.45-1.48-1.45h-9.88v10.31h9.88c1.32,0,1.48-.52,1.48-1.45Z"/><path class="cls-2" d="M324.47,892.29c-2.42,0-3.54-.55-3.54-3.42V872.45c0-2.87,1.12-3.42,3.54-3.42h9.92c2.41,0,3.54.55,3.54,3.42v16.42c0,2.87-1.13,3.42-3.54,3.42Zm11.3-19.78c0-.93-.19-1.45-1.48-1.45H324.6c-1.29,0-1.48.52-1.48,1.45v16.33c0,.93.19,1.45,1.48,1.45h9.69c1.32,0,1.48-.52,1.48-1.45Z"/><path class="cls-2" d="M355.66,892.29l-5.77-8.93h-5.35v8.93h-2.18V869h12.17c2.42,0,3.54.55,3.54,3.42V880c0,2.87-1.12,3.41-3.54,3.41h-2.32l5.76,8.93Zm.25-19.78c0-.93-.19-1.45-1.48-1.45h-9.89v10.31h9.89c1.32,0,1.48-.52,1.48-1.45Z"/><line class="cls-3" x1="309.21" y1="711.37" x2="348.84" y2="750.99"/><line class="cls-3" x1="258.26" y1="762.32" x2="229.96" y2="790.62"/><line class="cls-3" x1="309.21" y1="711.37" x2="269.58" y2="750.99"/><line class="cls-3" x1="360.16" y1="762.32" x2="388.46" y2="790.62"/><line class="cls-3" x1="309.21" y1="639.31" x2="309.21" y2="599.29"/><line class="cls-3" x1="309.21" y1="711.37" x2="309.21" y2="655.33"/><path class="cls-2" d="M5.43,892.29l-5.77-8.93H-5.68v8.93H-7.87V869H4.3c2.42,0,3.54.55,3.54,3.42V880c0,2.87-1.12,3.41-3.54,3.41H2l5.77,8.93Zm.25-19.78c0-.93-.19-1.45-1.48-1.45H-5.68v10.31H4.2c1.32,0,1.48-.52,1.48-1.45Z"/><path class="cls-2" d="M15.26,892.29c-2.42,0-3.54-.55-3.54-3.42V872.45c0-2.87,1.12-3.42,3.54-3.42h9.92c2.41,0,3.54.55,3.54,3.42v16.42c0,2.87-1.13,3.42-3.54,3.42Zm11.3-19.78c0-.93-.19-1.45-1.48-1.45H15.39c-1.29,0-1.48.52-1.48,1.45v16.33c0,.93.19,1.45,1.48,1.45h9.69c1.32,0,1.48-.52,1.48-1.45Z"/><path class="cls-2" d="M46.45,892.29l-5.77-8.93H35.34v8.93H33.15V869H45.32c2.42,0,3.54.55,3.54,3.42V880c0,2.87-1.12,3.41-3.54,3.41H43l5.76,8.93Zm.25-19.78c0-.93-.19-1.45-1.48-1.45H35.34v10.31h9.88c1.32,0,1.48-.52,1.48-1.45Z"/><line class="cls-3" y1="711.37" x2="39.63" y2="750.99"/><line class="cls-3" y1="711.37" x2="-39.63" y2="750.99"/><line class="cls-3" x1="50.95" y1="762.32" x2="79.25" y2="790.62"/><line class="cls-3" y1="639.31" y2="599.29"/><line class="cls-3" y1="711.37" y2="655.33"/><path class="cls-2" d="M727.71,457.55V434.3H742.2v2H729.9v8.56h10.21v2H729.9v8.63h12.3v2Z"/><path class="cls-2" d="M758.79,457.55,753,448.63h-5.35v8.92h-2.19V434.3h12.18c2.41,0,3.54.55,3.54,3.41v7.5c0,2.87-1.13,3.42-3.54,3.42h-2.32l5.76,8.92Zm.26-19.78c0-.93-.19-1.44-1.48-1.44h-9.89v10.3h9.89c1.32,0,1.48-.51,1.48-1.45Z"/><path class="cls-2" d="M778.45,457.55l-5.76-8.92h-5.35v8.92h-2.19V434.3h12.17c2.42,0,3.55.55,3.55,3.41v7.5c0,2.87-1.13,3.42-3.55,3.42H775l5.77,8.92Zm.26-19.78c0-.93-.2-1.44-1.48-1.44h-9.89v10.3h9.89c1.32,0,1.48-.51,1.48-1.45Z"/><path class="cls-2" d="M788.28,457.55c-2.41,0-3.54-.55-3.54-3.41V437.71c0-2.86,1.13-3.41,3.54-3.41h9.92c2.42,0,3.55.55,3.55,3.41v16.43c0,2.86-1.13,3.41-3.55,3.41Zm11.31-19.78c0-.93-.2-1.44-1.48-1.44h-9.7c-1.29,0-1.48.51-1.48,1.44V454.1c0,.94.19,1.45,1.48,1.45h9.7c1.32,0,1.48-.51,1.48-1.45Z"/><path class="cls-2" d="M819.47,457.55l-5.77-8.92h-5.34v8.92h-2.19V434.3h12.17c2.42,0,3.54.55,3.54,3.41v7.5c0,2.87-1.12,3.42-3.54,3.42H816l5.77,8.92Zm.26-19.78c0-.93-.2-1.44-1.48-1.44h-9.89v10.3h9.89c1.32,0,1.48-.51,1.48-1.45Z"/><line class="cls-3" x1="773.02" y1="276.63" x2="812.65" y2="316.26"/><line class="cls-3" x1="722.07" y1="327.58" x2="693.77" y2="355.88"/><line class="cls-3" x1="773.02" y1="276.63" x2="733.4" y2="316.26"/><line class="cls-3" x1="823.98" y1="327.58" x2="852.28" y2="355.88"/><line class="cls-3" x1="773.02" y1="204.58" x2="773.02" y2="164.55"/><line class="cls-3" x1="773.02" y1="276.63" x2="773.02" y2="220.59"/><line class="cls-3" x1="773.02" y1="592.84" x2="733.4" y2="553.21"/><line class="cls-3" x1="823.98" y1="541.89" x2="852.28" y2="513.59"/><line class="cls-3" x1="773.02" y1="592.84" x2="812.65" y2="553.21"/><line class="cls-3" x1="722.07" y1="541.89" x2="693.77" y2="513.59"/><line class="cls-3" x1="773.02" y1="664.9" x2="773.02" y2="704.92"/><line class="cls-3" x1="773.02" y1="592.84" x2="773.02" y2="648.88"/><path class="cls-2" d="M418.5,457.55V434.3H433v2h-12.3v8.56H430.9v2H420.69v8.63H433v2Z"/><path class="cls-2" d="M449.59,457.55l-5.77-8.92h-5.35v8.92h-2.19V434.3h12.18c2.41,0,3.54.55,3.54,3.41v7.5c0,2.87-1.13,3.42-3.54,3.42h-2.32l5.76,8.92Zm.25-19.78c0-.93-.19-1.44-1.48-1.44h-9.89v10.3h9.89c1.32,0,1.48-.51,1.48-1.45Z"/><path class="cls-2" d="M469.24,457.55l-5.76-8.92h-5.35v8.92h-2.19V434.3h12.17c2.42,0,3.55.55,3.55,3.41v7.5c0,2.87-1.13,3.42-3.55,3.42h-2.32l5.77,8.92Zm.26-19.78c0-.93-.2-1.44-1.48-1.44h-9.89v10.3H468c1.32,0,1.48-.51,1.48-1.45Z"/><path class="cls-2" d="M479.07,457.55c-2.41,0-3.54-.55-3.54-3.41V437.71c0-2.86,1.13-3.41,3.54-3.41H489c2.42,0,3.55.55,3.55,3.41v16.43c0,2.86-1.13,3.41-3.55,3.41Zm11.31-19.78c0-.93-.19-1.44-1.48-1.44h-9.7c-1.29,0-1.48.51-1.48,1.44V454.1c0,.94.19,1.45,1.48,1.45h9.7c1.32,0,1.48-.51,1.48-1.45Z"/><path class="cls-2" d="M510.26,457.55l-5.76-8.92h-5.35v8.92H497V434.3h12.17c2.42,0,3.55.55,3.55,3.41v7.5c0,2.87-1.13,3.42-3.55,3.42h-2.32l5.77,8.92Zm.26-19.78c0-.93-.2-1.44-1.48-1.44h-9.89v10.3H509c1.32,0,1.48-.51,1.48-1.45Z"/><line class="cls-3" x1="463.81" y1="276.63" x2="503.44" y2="316.26"/><line class="cls-3" x1="412.86" y1="327.58" x2="384.56" y2="355.88"/><line class="cls-3" x1="463.81" y1="276.63" x2="424.19" y2="316.26"/><line class="cls-3" x1="514.77" y1="327.58" x2="543.07" y2="355.88"/><line class="cls-3" x1="463.81" y1="204.58" x2="463.81" y2="164.55"/><line class="cls-3" x1="463.81" y1="276.63" x2="463.81" y2="220.59"/><line class="cls-3" x1="463.81" y1="592.84" x2="424.19" y2="553.21"/><line class="cls-3" x1="514.77" y1="541.89" x2="543.07" y2="513.59"/><line class="cls-3" x1="463.81" y1="592.84" x2="503.44" y2="553.21"/><line class="cls-3" x1="412.86" y1="541.89" x2="384.56" y2="513.59"/><line class="cls-3" x1="463.81" y1="664.9" x2="463.81" y2="704.92"/><line class="cls-3" x1="463.81" y1="592.84" x2="463.81" y2="648.88"/><path class="cls-2" d="M109.29,457.55V434.3h14.49v2h-12.3v8.56h10.21v2H111.48v8.63h12.3v2Z"/><path class="cls-2" d="M140.38,457.55l-5.77-8.92h-5.35v8.92h-2.18V434.3h12.17c2.41,0,3.54.55,3.54,3.41v7.5c0,2.87-1.13,3.42-3.54,3.42h-2.32l5.76,8.92Zm.25-19.78c0-.93-.19-1.44-1.48-1.44h-9.89v10.3h9.89c1.32,0,1.48-.51,1.48-1.45Z"/><path class="cls-2" d="M160,457.55l-5.76-8.92h-5.35v8.92h-2.19V434.3H158.9c2.42,0,3.55.55,3.55,3.41v7.5c0,2.87-1.13,3.42-3.55,3.42h-2.31l5.76,8.92Zm.26-19.78c0-.93-.19-1.44-1.48-1.44h-9.89v10.3h9.89c1.32,0,1.48-.51,1.48-1.45Z"/><path class="cls-2" d="M169.86,457.55c-2.41,0-3.54-.55-3.54-3.41V437.71c0-2.86,1.13-3.41,3.54-3.41h9.92c2.42,0,3.55.55,3.55,3.41v16.43c0,2.86-1.13,3.41-3.55,3.41Zm11.31-19.78c0-.93-.19-1.44-1.48-1.44H170c-1.29,0-1.48.51-1.48,1.44V454.1c0,.94.19,1.45,1.48,1.45h9.7c1.32,0,1.48-.51,1.48-1.45Z"/><path class="cls-2" d="M201.05,457.55l-5.76-8.92h-5.35v8.92h-2.19V434.3h12.17c2.42,0,3.55.55,3.55,3.41v7.5c0,2.87-1.13,3.42-3.55,3.42H197.6l5.77,8.92Zm.26-19.78c0-.93-.2-1.44-1.48-1.44h-9.89v10.3h9.89c1.32,0,1.48-.51,1.48-1.45Z"/><line class="cls-3" x1="154.6" y1="276.63" x2="194.23" y2="316.26"/><line class="cls-3" x1="103.65" y1="327.58" x2="75.35" y2="355.88"/><line class="cls-3" x1="154.6" y1="276.63" x2="114.98" y2="316.26"/><line class="cls-3" x1="205.56" y1="327.58" x2="233.86" y2="355.88"/><line class="cls-3" x1="154.6" y1="204.58" x2="154.6" y2="164.55"/><line class="cls-3" x1="154.6" y1="276.63" x2="154.6" y2="220.59"/><line class="cls-3" x1="154.6" y1="592.84" x2="114.98" y2="553.21"/><line class="cls-3" x1="205.56" y1="541.89" x2="233.86" y2="513.59"/><line class="cls-3" x1="154.6" y1="592.84" x2="194.23" y2="553.21"/><line class="cls-3" x1="103.65" y1="541.89" x2="75.35" y2="513.59"/><line class="cls-3" x1="154.6" y1="664.9" x2="154.6" y2="704.92"/><line class="cls-3" x1="154.6" y1="592.84" x2="154.6" y2="648.88"/><path class="cls-2" d="M882.31,22.81V-.44H896.8v2H884.5v8.57h10.21v2H884.5v8.63h12.3v2Z"/><path class="cls-2" d="M913.4,22.81l-5.77-8.92h-5.34v8.92H900.1V-.44h12.17c2.42,0,3.54.55,3.54,3.42v7.5c0,2.86-1.12,3.41-3.54,3.41H910l5.77,8.92ZM913.66,3c0-.93-.2-1.45-1.48-1.45h-9.89V11.9h9.89c1.32,0,1.48-.52,1.48-1.45Z"/><path class="cls-2" d="M933.05,22.81l-5.76-8.92h-5.35v8.92h-2.19V-.44h12.18c2.41,0,3.54.55,3.54,3.42v7.5c0,2.86-1.13,3.41-3.54,3.41h-2.32l5.76,8.92ZM933.31,3c0-.93-.19-1.45-1.48-1.45h-9.89V11.9h9.89c1.32,0,1.48-.52,1.48-1.45Z"/><line class="cls-3" x1="927.63" y1="158.1" x2="888" y2="118.48"/><line class="cls-3" x1="927.63" y1="158.1" x2="967.25" y2="118.48"/><line class="cls-3" x1="876.68" y1="107.15" x2="848.38" y2="78.85"/><line class="cls-3" x1="927.63" y1="230.16" x2="927.63" y2="270.18"/><line class="cls-3" x1="927.63" y1="158.1" x2="927.63" y2="214.14"/><path class="cls-2" d="M573.1,22.81V-.44h14.49v2h-12.3v8.57H585.5v2H575.29v8.63h12.3v2Z"/><path class="cls-2" d="M604.19,22.81l-5.77-8.92h-5.34v8.92h-2.19V-.44h12.17c2.42,0,3.54.55,3.54,3.42v7.5c0,2.86-1.12,3.41-3.54,3.41h-2.32l5.77,8.92ZM604.45,3c0-.93-.2-1.45-1.48-1.45h-9.89V11.9H603c1.32,0,1.48-.52,1.48-1.45Z"/><path class="cls-2" d="M623.85,22.81l-5.77-8.92h-5.35v8.92h-2.18V-.44h12.17c2.41,0,3.54.55,3.54,3.42v7.5c0,2.86-1.13,3.41-3.54,3.41H620.4l5.76,8.92ZM624.1,3c0-.93-.19-1.45-1.48-1.45h-9.89V11.9h9.89c1.32,0,1.48-.52,1.48-1.45Z"/><path class="cls-2" d="M633.68,22.81c-2.42,0-3.54-.54-3.54-3.41V3c0-2.87,1.12-3.42,3.54-3.42h9.92c2.41,0,3.54.55,3.54,3.42V19.4c0,2.87-1.13,3.41-3.54,3.41ZM645,3c0-.93-.19-1.45-1.48-1.45h-9.69c-1.29,0-1.48.52-1.48,1.45V19.37c0,.93.19,1.45,1.48,1.45h9.69c1.32,0,1.48-.52,1.48-1.45Z"/><path class="cls-2" d="M664.87,22.81l-5.77-8.92h-5.35v8.92h-2.19V-.44h12.18c2.42,0,3.54.55,3.54,3.42v7.5c0,2.86-1.12,3.41-3.54,3.41h-2.32l5.76,8.92ZM665.12,3c0-.93-.19-1.45-1.48-1.45h-9.89V11.9h9.89c1.32,0,1.48-.52,1.48-1.45Z"/><line class="cls-3" x1="618.42" y1="158.1" x2="578.79" y2="118.48"/><line class="cls-3" x1="669.37" y1="107.15" x2="697.67" y2="78.85"/><line class="cls-3" x1="618.42" y1="158.1" x2="658.04" y2="118.48"/><line class="cls-3" x1="567.47" y1="107.15" x2="539.17" y2="78.85"/><line class="cls-3" x1="618.42" y1="230.16" x2="618.42" y2="270.18"/><line class="cls-3" x1="618.42" y1="158.1" x2="618.42" y2="214.14"/><path class="cls-2" d="M263.89,22.81V-.44h14.49v2h-12.3v8.57h10.21v2H266.08v8.63h12.3v2Z"/><path class="cls-2" d="M295,22.81l-5.76-8.92h-5.35v8.92h-2.19V-.44h12.17c2.42,0,3.55.55,3.55,3.42v7.5c0,2.86-1.13,3.41-3.55,3.41h-2.32l5.77,8.92ZM295.24,3c0-.93-.2-1.45-1.48-1.45h-9.89V11.9h9.89c1.32,0,1.48-.52,1.48-1.45Z"/><path class="cls-2" d="M314.64,22.81l-5.77-8.92h-5.34v8.92h-2.19V-.44h12.17c2.41,0,3.54.55,3.54,3.42v7.5c0,2.86-1.13,3.41-3.54,3.41h-2.32L317,22.81ZM314.89,3c0-.93-.19-1.45-1.48-1.45h-9.88V11.9h9.88c1.32,0,1.48-.52,1.48-1.45Z"/><path class="cls-2" d="M324.47,22.81c-2.42,0-3.54-.54-3.54-3.41V3c0-2.87,1.12-3.42,3.54-3.42h9.92c2.41,0,3.54.55,3.54,3.42V19.4c0,2.87-1.13,3.41-3.54,3.41ZM335.77,3c0-.93-.19-1.45-1.48-1.45H324.6c-1.29,0-1.48.52-1.48,1.45V19.37c0,.93.19,1.45,1.48,1.45h9.69c1.32,0,1.48-.52,1.48-1.45Z"/><path class="cls-2" d="M355.66,22.81l-5.77-8.92h-5.35v8.92h-2.18V-.44h12.17c2.42,0,3.54.55,3.54,3.42v7.5c0,2.86-1.12,3.41-3.54,3.41h-2.32L358,22.81ZM355.91,3c0-.93-.19-1.45-1.48-1.45h-9.89V11.9h9.89c1.32,0,1.48-.52,1.48-1.45Z"/><line class="cls-3" x1="309.21" y1="158.1" x2="269.58" y2="118.48"/><line class="cls-3" x1="360.16" y1="107.15" x2="388.46" y2="78.85"/><line class="cls-3" x1="309.21" y1="158.1" x2="348.84" y2="118.48"/><line class="cls-3" x1="258.26" y1="107.15" x2="229.96" y2="78.85"/><line class="cls-3" x1="309.21" y1="230.16" x2="309.21" y2="270.18"/><line class="cls-3" x1="309.21" y1="158.1" x2="309.21" y2="214.14"/><path class="cls-2" d="M5.43,22.81-.34,13.89H-5.68v8.92H-7.87V-.44H4.3C6.72-.44,7.84.11,7.84,3v7.5c0,2.86-1.12,3.41-3.54,3.41H2l5.77,8.92ZM5.68,3c0-.93-.19-1.45-1.48-1.45H-5.68V11.9H4.2c1.32,0,1.48-.52,1.48-1.45Z"/><path class="cls-2" d="M15.26,22.81c-2.42,0-3.54-.54-3.54-3.41V3c0-2.87,1.12-3.42,3.54-3.42h9.92c2.41,0,3.54.55,3.54,3.42V19.4c0,2.87-1.13,3.41-3.54,3.41ZM26.56,3c0-.93-.19-1.45-1.48-1.45H15.39c-1.29,0-1.48.52-1.48,1.45V19.37c0,.93.19,1.45,1.48,1.45h9.69c1.32,0,1.48-.52,1.48-1.45Z"/><path class="cls-2" d="M46.45,22.81l-5.77-8.92H35.34v8.92H33.15V-.44H45.32c2.42,0,3.54.55,3.54,3.42v7.5c0,2.86-1.12,3.41-3.54,3.41H43l5.76,8.92ZM46.7,3c0-.93-.19-1.45-1.48-1.45H35.34V11.9h9.88c1.32,0,1.48-.52,1.48-1.45Z"/><line class="cls-3" y1="158.1" x2="-39.63" y2="118.48"/><line class="cls-3" x1="50.95" y1="107.15" x2="79.25" y2="78.85"/><line class="cls-3" y1="158.1" x2="39.63" y2="118.48"/><line class="cls-3" y1="230.16" y2="270.18"/><line class="cls-3" y1="158.1" y2="214.14"/></pattern></defs><rect id="error" class="cls-4" width="2560" height="1388"/></svg>