<svg id="Error" data-name="レイヤー 1" xmlns="http://www.w3.org/2000/svg" xmlns:xlink="http://www.w3.org/1999/xlink"
    viewBox="0 0 2560 1388">
    <defs>
        <style>
            .cls-1,
            .cls-3 {
                fill: none;
            }

            .cls-2 {
                fill: #ce0000;
            }

            .cls-3 {
                stroke: #ce0000;
                stroke-miterlimit: 10;
            }

            .cls-4 {
                fill: url(#新規パターン_4);
            }
        </style>
        <pattern id="新規パターン_4" data-name="新規パターン 4" width="904.06" height="845.84" patternUnits="userSpaceOnUse"
            viewBox="0 0 904.06 845.84">
            <rect class="cls-1" width="904.06" height="845.84" />
            <path class="cls-2" d="M552.46,792.82V769.57H567v2h-12.3v8.56h10.21v2H554.65v8.64H567v2Z" />
            <path class="cls-2"
                d="M583.55,792.82l-5.77-8.92h-5.34v8.92h-2.19V769.57h12.17c2.42,0,3.54.55,3.54,3.41v7.51c0,2.86-1.12,3.41-3.54,3.41H580.1l5.77,8.92Zm.26-19.77c0-.94-.2-1.45-1.48-1.45h-9.89v10.31h9.89c1.32,0,1.48-.52,1.48-1.45Z" />
            <path class="cls-2"
                d="M603.21,792.82l-5.77-8.92h-5.35v8.92H589.9V769.57h12.18c2.41,0,3.54.55,3.54,3.41v7.51c0,2.86-1.13,3.41-3.54,3.41h-2.32l5.76,8.92Zm.25-19.77c0-.94-.19-1.45-1.48-1.45h-9.89v10.31H602c1.32,0,1.48-.52,1.48-1.45Z" />
            <path class="cls-2"
                d="M613,792.82c-2.42,0-3.54-.55-3.54-3.41V773c0-2.86,1.12-3.41,3.54-3.41H623c2.41,0,3.54.55,3.54,3.41v16.43c0,2.86-1.13,3.41-3.54,3.41Zm11.3-19.77c0-.94-.19-1.45-1.48-1.45h-9.69c-1.29,0-1.48.51-1.48,1.45v16.33c0,.93.19,1.45,1.48,1.45h9.69c1.32,0,1.48-.52,1.48-1.45Z" />
            <path class="cls-2"
                d="M644.22,792.82l-5.76-8.92h-5.35v8.92h-2.19V769.57H643.1c2.42,0,3.54.55,3.54,3.41v7.51c0,2.86-1.12,3.41-3.54,3.41h-2.32l5.76,8.92Zm.26-19.77c0-.94-.19-1.45-1.48-1.45h-9.89v10.31H643c1.32,0,1.48-.52,1.48-1.45Z" />
            <polyline class="cls-3" points="903.7 994.15 823.15 913.59 742.59 994.15 823.15 913.59 823.15 800.81" />
            <polyline class="cls-3" points="742.59 564.25 823.15 644.81 903.7 564.25 823.15 644.81 823.15 757.59" />
            <path class="cls-2" d="M100.43,792.82V769.57h14.5v2H102.62v8.56h10.21v2H102.62v8.64h12.31v2Z" />
            <path class="cls-2"
                d="M131.52,792.82l-5.76-8.92h-5.35v8.92h-2.19V769.57h12.17c2.42,0,3.55.55,3.55,3.41v7.51c0,2.86-1.13,3.41-3.55,3.41h-2.31l5.76,8.92Zm.26-19.77c0-.94-.19-1.45-1.48-1.45h-9.89v10.31h9.89c1.32,0,1.48-.52,1.48-1.45Z" />
            <path class="cls-2"
                d="M151.18,792.82l-5.77-8.92h-5.34v8.92h-2.19V769.57h12.17c2.42,0,3.54.55,3.54,3.41v7.51c0,2.86-1.12,3.41-3.54,3.41h-2.32l5.77,8.92Zm.26-19.77c0-.94-.2-1.45-1.49-1.45h-9.88v10.31H150c1.32,0,1.49-.52,1.49-1.45Z" />
            <path class="cls-2"
                d="M161,792.82c-2.42,0-3.54-.55-3.54-3.41V773c0-2.86,1.12-3.41,3.54-3.41h9.92c2.41,0,3.54.55,3.54,3.41v16.43c0,2.86-1.13,3.41-3.54,3.41Zm11.3-19.77c0-.94-.19-1.45-1.48-1.45h-9.69c-1.29,0-1.48.51-1.48,1.45v16.33c0,.93.19,1.45,1.48,1.45h9.69c1.32,0,1.48-.52,1.48-1.45Z" />
            <path class="cls-2"
                d="M192.2,792.82l-5.77-8.92h-5.34v8.92H178.9V769.57h12.17c2.42,0,3.54.55,3.54,3.41v7.51c0,2.86-1.12,3.41-3.54,3.41h-2.32l5.76,8.92Zm.25-19.77c0-.94-.19-1.45-1.48-1.45h-9.88v10.31H191c1.32,0,1.48-.52,1.48-1.45Z" />
            <polyline class="cls-3" points="451.68 994.15 371.12 913.59 290.56 994.15 371.12 913.59 371.12 800.81" />
            <polyline class="cls-3" points="290.56 564.25 371.12 644.81 451.68 564.25 371.12 644.81 371.12 757.59" />
            <path class="cls-2" d="M778.48,369.9V346.65H793v2h-12.3v8.56h10.2v2h-10.2v8.64H793v2Z" />
            <path class="cls-2"
                d="M809.56,369.9,803.8,361h-5.35v8.92h-2.19V346.65h12.18c2.41,0,3.54.55,3.54,3.41v7.51c0,2.86-1.13,3.41-3.54,3.41h-2.32l5.76,8.92Zm.26-19.77c0-.94-.19-1.45-1.48-1.45h-9.89V359h9.89c1.32,0,1.48-.51,1.48-1.45Z" />
            <path class="cls-2"
                d="M829.22,369.9,823.45,361h-5.34v8.92h-2.19V346.65h12.17c2.42,0,3.54.55,3.54,3.41v7.51c0,2.86-1.12,3.41-3.54,3.41h-2.32l5.77,8.92Zm.26-19.77c0-.94-.2-1.45-1.48-1.45h-9.89V359H828c1.32,0,1.48-.51,1.48-1.45Z" />
            <path class="cls-2"
                d="M839.05,369.9c-2.41,0-3.54-.55-3.54-3.41V350.06c0-2.86,1.13-3.41,3.54-3.41H849c2.42,0,3.54.55,3.54,3.41v16.43c0,2.86-1.12,3.41-3.54,3.41Zm11.31-19.77c0-.94-.2-1.45-1.48-1.45h-9.7c-1.29,0-1.48.51-1.48,1.45v16.33c0,.93.19,1.45,1.48,1.45h9.7c1.32,0,1.48-.52,1.48-1.45Z" />
            <path class="cls-2"
                d="M870.24,369.9,864.47,361h-5.34v8.92h-2.19V346.65h12.17c2.42,0,3.54.55,3.54,3.41v7.51c0,2.86-1.12,3.41-3.54,3.41h-2.32l5.77,8.92Zm.26-19.77c0-.94-.2-1.45-1.48-1.45h-9.89V359H869c1.32,0,1.48-.51,1.48-1.45Z" />
            <path class="cls-2" d="M326.45,369.9V346.65h14.49v2h-12.3v8.56h10.21v2H328.64v8.64h12.3v2Z" />
            <path class="cls-2"
                d="M357.54,369.9,351.77,361h-5.35v8.92h-2.18V346.65h12.17c2.41,0,3.54.55,3.54,3.41v7.51c0,2.86-1.13,3.41-3.54,3.41h-2.32l5.77,8.92Zm.25-19.77c0-.94-.19-1.45-1.48-1.45h-9.89V359h9.89c1.32,0,1.48-.51,1.48-1.45Z" />
            <path class="cls-2"
                d="M377.19,369.9,371.43,361h-5.35v8.92h-2.19V346.65h12.17c2.42,0,3.55.55,3.55,3.41v7.51c0,2.86-1.13,3.41-3.55,3.41h-2.31l5.76,8.92Zm.26-19.77c0-.94-.19-1.45-1.48-1.45h-9.89V359H376c1.32,0,1.48-.51,1.48-1.45Z" />
            <path class="cls-2"
                d="M387,369.9c-2.41,0-3.54-.55-3.54-3.41V350.06c0-2.86,1.13-3.41,3.54-3.41h9.92c2.42,0,3.55.55,3.55,3.41v16.43c0,2.86-1.13,3.41-3.55,3.41Zm11.31-19.77c0-.94-.19-1.45-1.48-1.45h-9.7c-1.29,0-1.48.51-1.48,1.45v16.33c0,.93.19,1.45,1.48,1.45h9.7c1.32,0,1.48-.52,1.48-1.45Z" />
            <path class="cls-2"
                d="M418.21,369.9,412.45,361H407.1v8.92h-2.19V346.65h12.17c2.42,0,3.55.55,3.55,3.41v7.51c0,2.86-1.13,3.41-3.55,3.41h-2.31l5.76,8.92Zm.26-19.77c0-.94-.2-1.45-1.48-1.45H407.1V359H417c1.32,0,1.48-.51,1.48-1.45Z" />
            <polyline class="cls-3" points="677.69 571.23 597.13 490.67 516.57 571.23 597.13 490.67 597.13 377.89" />
            <polyline class="cls-3" points="516.57 141.33 597.13 221.88 677.69 141.33 597.13 221.88 597.13 334.67" />
            <polyline class="cls-3" points="225.66 571.23 145.1 490.67 64.55 571.23 145.1 490.67 145.1 377.89" />
            <polyline class="cls-3" points="64.55 141.33 145.1 221.88 225.66 141.33 145.1 221.88 145.1 334.67" />
            <polyline class="cls-3" points="903.7 148.31 823.15 67.75 742.59 148.31 823.15 67.75 823.15 -45.03" />
            <polyline class="cls-3" points="451.68 148.31 371.12 67.75 290.56 148.31 371.12 67.75 371.12 -45.03" />
        </pattern>
    </defs>
    <rect width="2560" height="1388" />
    <rect id="error" class="cls-4" width="2560" height="1388" />
</svg>