<svg id="SVGOPAnim" data-name="レイヤー 2" xmlns="http://www.w3.org/2000/svg" viewBox="0 0 2560 695">
    <defs>
        <style>.cls-1{fill:none;stroke:#09fbd3;stroke-miterlimit:10;}</style>
    </defs>
        <polyline data-async class="cls-1" points="940.5 340 933 347.5 1280 694.5 2560 694.5"/>
        <polyline class="cls-1" points="1619.5 355 1627 347.5 1280 0.5 0 0.5"/>
        <line data-async class="cls-1" x1="1446" y1="181.5" x2="1612" y2="347.5"/>
        <line data-async class="cls-1" x1="1446" y1="181.5" x2="1280" y2="15.5"/>
        <line data-async class="cls-1" x1="1114" y1="513.5" x2="1280" y2="679.5"/>
        <line class="cls-1" x1="1114" y1="513.5" x2="948" y2="347.5"/>
        <path data-async class="cls-1" d="M1095.63,717.29c-6,0-8.64-1.36-7.52-8.48l6.48-40.8c1.12-7.12,4.16-8.48,10.16-8.48h22.17c6,0,8.56,1.36,7.44,8.48l-1.36,8.72h-4l1.52-9.6c.32-2.32.16-4-3.44-4h-23.6c-3.6,0-4.41,1.68-4.73,4L1092,709.69c-.4,2.32-.16,4,3.44,4h23.61c3.6,0,4.32-1.68,4.72-4l1.52-9.6h4l-1.44,8.72c-1.12,7.12-4.08,8.48-10.08,8.48Z" transform="translate(0.5 -346)"/>
        <path data-async class="cls-1" d="M1144.35,717.29c-6,0-8.64-1.36-7.52-8.48l4.32-27c1.12-7.12,4.16-8.48,10.16-8.48h19.44c6,0,8.57,1.36,7.45,8.48l-4.32,27c-1.13,7.12-4.09,8.48-10.09,8.48Zm30-36.4c.32-2.32.08-4-3.52-4H1150c-3.6,0-4.32,1.68-4.64,4l-4.56,28.8c-.4,2.32-.16,4,3.44,4h20.88c3.6,0,4.32-1.68,4.72-4Z" transform="translate(0.5 -346)"/>
        <path data-async class="cls-1" d="M1239.47,717.29l5.77-36.4c.31-2.32.08-4-3.53-4h-16.32c-3.6,0-4.32,1.68-4.64,4l-5.76,36.4h-4l5.76-36.4c.32-2.32.08-4-3.52-4h-16.56c-3.6,0-4.32,1.68-4.64,4l-5.76,36.4h-4l5.6-35.52c1.12-7.12,4.16-8.48,10.16-8.48h15.12c3,0,5.28.4,6.24,3.28,1.92-2.88,4.24-3.28,7.36-3.28h14.88c6,0,8.57,1.36,7.45,8.48l-5.61,35.52Z" transform="translate(0.5 -346)"/>
        <path data-async class="cls-1" d="M1257.23,717.29l-2.56,16h-4l8.16-51.52c1.12-7.12,4.16-8.48,10.16-8.48h19.44c6,0,8.56,1.36,7.45,8.48l-4.33,27c-1.12,7.12-4.08,8.48-10.08,8.48Zm34.8-36.4c.32-2.32.08-4-3.52-4h-20.88c-3.6,0-4.32,1.68-4.64,4l-5.2,32.8h25c3.6,0,4.32-1.68,4.72-4Z" transform="translate(0.5 -346)"/>
        <path data-async class="cls-1" d="M1308.75,717.29c-6,0-8.64-1.36-7.52-8.48l8.8-55.52h4l-8.88,56.4c-.4,2.32-.16,4,3.44,4h9.28l-.56,3.6Z" transform="translate(0.5 -346)"/>
        <path data-async class="cls-1" d="M1331.55,717.29c-6,0-8.64-1.36-7.52-8.48l4.32-27c1.12-7.12,4.16-8.48,10.16-8.48H1358c6,0,8.56,1.36,7.44,8.48l-1.6,10c-1.12,7.12-4.16,8.48-10.16,8.48h-24.24l-1.44,9.44c-.4,2.32-.16,4,3.44,4h27.2l-.56,3.6Zm30-36.4c.32-2.32.08-4-3.52-4h-20.88c-3.6,0-4.32,1.68-4.64,4L1330,696.65h25c3.6,0,4.4-1.68,4.72-4Z" transform="translate(0.5 -346)"/>
        <path data-async class="cls-1" d="M1381,717.29c-6,0-8.64-1.36-7.52-8.48l5-31.92h-7.28l.64-3.6h7.28l2.56-16.48h4l-2.56,16.48h13.36l-.64,3.6h-13.36l-5.12,32.8c-.4,2.32-.16,4,3.44,4h9.28l-.56,3.6Z" transform="translate(0.5 -346)"/>
        <path data-async class="cls-1" d="M1404,717.29c-6,0-8.64-1.36-7.52-8.48l4.32-27c1.12-7.12,4.16-8.48,10.16-8.48h19.44c6,0,8.56,1.36,7.44,8.48l-1.6,10c-1.12,7.12-4.16,8.48-10.16,8.48h-24.24l-1.44,9.44c-.4,2.32-.16,4,3.44,4H1431l-.56,3.6Zm30-36.4c.32-2.32.08-4-3.52-4h-20.88c-3.6,0-4.32,1.68-4.64,4l-2.56,15.76h25c3.6,0,4.4-1.68,4.72-4Z" transform="translate(0.5 -346)"/>
        <path data-async class="cls-1" d="M1442,717.29l.56-4h4l-.56,4Zm1.84-12,7.28-45.76h4l-7.28,45.76Z" transform="translate(0.5 -346)"/>
        <path class="cls-1" d="M1458.11,717.29l.56-4h4l-.56,4Zm1.84-12,7.28-45.76h4L1464,705.29Z" transform="translate(0.5 -346)"/>
</svg>