<svg id="Sun" data-name="レイヤー 1" xmlns="http://www.w3.org/2000/svg" viewBox="0 0 2560 1388">
    <defs>
        <style>
            .cls-1,
            .cls-2 {
                fill: none;
            }

            .cls-2 {
                stroke: #f148fb;
                stroke-miterlimit: 10;
            }

            .cls-3 {
                fill: url(#新規パターン);
            }
        </style>
        <pattern id="新規パターン" data-name="新規パターン" width="850.88" height="1474.63" patternUnits="userSpaceOnUse"
            viewBox="0 0 850.88 1474.63">
            <rect class="cls-1" width="850.88" height="1474.63" />
            <polygon class="cls-2"
                points="987.38 1237.82 714.27 1237.82 577.72 1474.34 714.27 1710.86 987.38 1710.86 1123.93 1474.34 987.38 1237.82" />
            <polygon class="cls-2" points="850.88 984.09 719.43 1211.76 982.33 1211.76 850.88 984.09" />
            <polygon class="cls-2" points="426.31 1229.21 557.75 1456.89 689.2 1229.21 426.31 1229.21" />
            <polygon class="cls-2"
                points="136.5 1237.82 -136.61 1237.82 -273.16 1474.34 -136.61 1710.86 136.5 1710.86 273.05 1474.34 136.5 1237.82" />
            <polygon class="cls-2" points="0 984.09 -131.45 1211.76 131.45 1211.76 0 984.09" />
            <polygon class="cls-2" points="424.57 1229.21 161.68 1229.21 293.13 1456.89 424.57 1229.21" />
            <polygon class="cls-2"
                points="561.94 500.51 288.83 500.51 152.28 737.03 288.83 973.55 561.94 973.55 698.49 737.03 561.94 500.51" />
            <polygon class="cls-2" points="425.38 1227.86 556.83 1000.18 293.94 1000.18 425.38 1227.86" />
            <polygon class="cls-2" points="425.44 246.77 293.99 474.45 556.89 474.45 425.44 246.77" />
            <polygon class="cls-2" points="0.87 491.9 132.31 719.58 263.76 491.9 0.87 491.9" />
            <polygon class="cls-2" points="850.01 491.9 587.12 491.9 718.56 719.58 850.01 491.9" />
            <polygon class="cls-2" points="850.01 982.15 718.56 754.47 587.12 982.15 850.01 982.15" />
            <polygon class="cls-2" points="0.87 982.15 263.76 982.15 132.31 754.47 0.87 982.15" />
            <polygon class="cls-2"
                points="987.38 -236.81 714.27 -236.81 577.72 -0.29 714.27 236.23 987.38 236.23 1123.93 -0.29 987.38 -236.81" />
            <polygon class="cls-2" points="850.83 490.54 982.27 262.87 719.38 262.87 850.83 490.54" />
            <polygon class="cls-2" points="426.31 244.83 689.2 244.83 557.75 17.16 426.31 244.83" />
            <polygon class="cls-2"
                points="136.5 -236.81 -136.61 -236.81 -273.16 -0.29 -136.61 236.23 136.5 236.23 273.05 -0.29 136.5 -236.81" />
            <polygon class="cls-2" points="-0.06 490.54 131.4 262.87 -131.5 262.87 -0.06 490.54" />
            <polygon class="cls-2" points="424.57 244.83 293.13 17.16 161.68 244.83 424.57 244.83" />
        </pattern>
    </defs>
    <rect id="Sun" class="cls-3" width="2560" height="1388" />
</svg>